<?xml version="1.0" encoding="UTF-8" standalone="no"?>
<!-- Created with Inkscape (http://www.inkscape.org/) -->

<svg
   xmlns:dc="http://purl.org/dc/elements/1.1/"
   xmlns:cc="http://creativecommons.org/ns#"
   xmlns:rdf="http://www.w3.org/1999/02/22-rdf-syntax-ns#"
   xmlns:svg="http://www.w3.org/2000/svg"
   xmlns="http://www.w3.org/2000/svg"
   xmlns:sodipodi="http://sodipodi.sourceforge.net/DTD/sodipodi-0.dtd"
   xmlns:inkscape="http://www.inkscape.org/namespaces/inkscape"
   width="404.92825"
   height="500"
   id="svg4266"
   version="1.1"
   inkscape:version="0.48.5 r10040"
   sodipodi:docname="Documento nuevo 7">
  <defs
     id="defs4268" />
  <sodipodi:namedview
     id="base"
     pagecolor="#ffffff"
     bordercolor="#666666"
     borderopacity="1.0"
     inkscape:pageopacity="0.0"
     inkscape:pageshadow="2"
     inkscape:zoom="0.35"
     inkscape:cx="-2.8571468"
     inkscape:cy="-32.362209"
     inkscape:document-units="px"
     inkscape:current-layer="layer1"
     showgrid="false"
     fit-margin-top="0"
     fit-margin-left="0"
     fit-margin-right="0"
     fit-margin-bottom="0"
     inkscape:window-width="1920"
     inkscape:window-height="1018"
     inkscape:window-x="-8"
     inkscape:window-y="-8"
     inkscape:window-maximized="1" />
  <metadata
     id="metadata4271">
    <rdf:RDF>
      <cc:Work
         rdf:about="">
        <dc:format>image/svg+xml</dc:format>
        <dc:type
           rdf:resource="http://purl.org/dc/dcmitype/StillImage" />
        <dc:title></dc:title>
      </cc:Work>
    </rdf:RDF>
  </metadata>
  <g
     inkscape:label="Capa 1"
     inkscape:groupmode="layer"
     id="layer1"
     transform="translate(-3.980602e-6,3.0760616e-5)">
    <g
       transform="matrix(2.2713718,0,0,-2.2713718,276.2161,2267.329)"
       id="g3089">
      <path
         inkscape:connector-curvature="0"
         id="path4244"
         d="m 24.769412,887.95415 c 0,-31.30741 -25.37966636,-56.68707 -56.68707,-56.68707 -31.307404,0 -56.687069,25.37966 -56.687069,56.68707 0,31.3074 25.379665,56.68707 56.687069,56.68707 31.30740364,0 56.68707,-25.37967 56.68707,-56.68707 z"
         style="fill:#484a8a;fill-opacity:0.25490196;stroke:none" />
      <path
         inkscape:connector-curvature="0"
         id="path4204"
         d="m 52.667149,887.95407 c 0,-47.02007 -38.117303,-85.13738 -85.137378,-85.13738 -47.020075,0 -85.137381,38.11731 -85.137381,85.13738 0,47.02008 38.117306,85.13738 85.137381,85.13738 47.020075,0 85.137378,-38.1173 85.137378,-85.13738 z"
         style="fill:none;stroke:#e8502d;stroke-width:8;stroke-linecap:butt;stroke-linejoin:miter;stroke-miterlimit:4;stroke-opacity:1;stroke-dasharray:none" />
      <path
         inkscape:connector-curvature="0"
         id="path4206"
         d="m 38.639742,887.95407 c 0,-39.27296 -31.83702,-71.10998 -71.109973,-71.10998 -39.272954,0 -71.109969,31.83702 -71.109969,71.10998 0,39.27295 31.837015,71.10997 71.109969,71.10997 39.272953,0 71.109973,-31.83702 71.109973,-71.10997 z"
         style="fill:none;stroke:#484a8a;stroke-width:8;stroke-miterlimit:4;stroke-opacity:1;stroke-dasharray:none" />
      <path
         id="path4210"
         style="font-size:473.80856323px;font-style:normal;font-variant:normal;font-weight:normal;font-stretch:normal;text-align:start;line-height:125%;letter-spacing:0px;word-spacing:0px;writing-mode:lr-tb;text-anchor:start;fill:#e8502d;fill-opacity:1;stroke:none;font-family:Impact;-inkscape-font-specification:Impact"
         d="m -59.581737,884.74611 c -3.96422,-2.9141 -6.26304,-5.35616 -6.896465,-7.3262 -0.633481,-1.9701 -0.950204,-4.80208 -0.950178,-8.49593 -2.6e-5,-4.22747 0.275832,-6.95683 0.827575,-8.18811 0.55169,-1.23131 1.644907,-1.84696 3.279655,-1.84694 1.552945,-2e-5 2.564426,0.48224 3.034439,1.44677 0.469946,0.96449 0.704939,3.49891 0.704974,7.60324 z m -7.846643,18.95366 -23.233424,0 c 0.06223,6.51722 -0.131124,6.70594 2.17622,12.352 1.450802,3.42703 4.36264,6.45396 8.735521,9.0808 4.372849,2.62668 10.053489,3.94006 17.041931,3.94014 8.377883,-8e-5 14.691976,-1.48789 18.942285,-4.46344 4.25021,-2.9757 6.804455,-6.62854 7.66274,-10.95852 0.858166,-4.33012 1.28728,-13.24673 1.287342,-26.74987 l 0,-41.00211 -24.091651,0 0,7.26464 c -1.512148,-2.91407 -3.463591,-5.09962 -5.854332,-6.55664 -2.3908,-1.45704 -5.24134,-2.18555 -8.551616,-2.18555 -4.332016,0 -8.306422,1.22103 -11.923219,3.6631 -3.616821,2.44206 -5.425223,7.78792 -5.425221,16.03761 l 0,6.71055 c -2e-6,6.1154 0.960392,10.28128 2.881192,12.49764 1.920784,2.21629 6.68189,4.80201 14.283342,7.75716 8.132689,3.20131 12.485121,5.35608 13.057307,6.46429 0.572117,1.10812 0.858191,3.36549 0.858226,6.77212 -3.5e-5,4.26843 -0.316761,7.0491 -0.950181,8.34202 -0.633483,1.29279 -1.685835,1.93922 -3.157046,1.93929 -1.675617,-7e-5 -2.717744,-0.95172 -3.126395,-2.0393 -0.93958,-6.03974 -0.613021,-2.27271 -0.613021,-8.86593 z"
         inkscape:connector-curvature="0" />
      <path
         id="path4212"
         style="font-size:473.80856323px;font-style:normal;font-variant:normal;font-weight:normal;font-stretch:normal;text-align:start;line-height:125%;letter-spacing:0px;word-spacing:0px;writing-mode:lr-tb;text-anchor:start;fill:#484a8a;fill-opacity:1;stroke:none;font-family:Impact;-inkscape-font-specification:Impact"
         d="m 1.4556103,903.71486 c -3.56e-5,4.18012 -0.2570461,6.90942 -0.77103646,8.18788 -0.51405662,1.27834 -1.52233886,1.91754 -3.02483654,1.91761 -1.4630267,-7e-5 -2.4119918,-0.5581 -2.8469079,-1.6741 -0.4349722,-1.11614 -0.652443,-3.92659 -0.6524149,-8.43139 l 0,-34.82132 c -2.81e-5,-4.34254 0.2471026,-7.12256 0.7413817,-8.34007 0.4942256,-1.21754 1.472848,-1.82631 2.9358722,-1.82629 1.50250279,-2e-5 2.48112517,0.62904 2.93587482,1.88716 0.45467318,1.2581 0.68203148,4.28163 0.68206708,9.07059 z m -7.2951958,94.50526 0,-77.0946 c 1.9769865,2.35381 4.1813594,4.10908 6.61312872,5.26582 2.43169288,1.15656 5.07100988,1.73489 7.91795598,1.73497 3.2818008,-8e-5 6.1287068,-0.52768 8.5407158,-1.58278 2.411908,-1.05528 4.250539,-2.5366 5.515885,-4.44398 1.265229,-1.90754 2.026381,-3.77442 2.283452,-5.60064 0.256952,-1.82636 0.385456,-5.72245 0.385515,-11.68828 l 0,-36.4041 c -5.9e-5,-5.92533 -0.385573,-10.33886 -1.156554,-13.24063 -0.771097,-2.90177 -2.580061,-5.41799 -5.426915,-7.54867 -2.846954,-2.13068 -6.22765,-3.19601 -10.1420988,-3.19601 -2.8074116,0 -5.4269536,0.62906 -7.85864901,1.88716 -2.43176169,1.25812 -4.65590439,3.14528 -6.67243569,5.66152 l -1.542073,-6.08765 -23.2542875,0 0,152.33787 z"
         inkscape:connector-curvature="0" />
      <g
         id="text4214"
         style="font-size:64.14274597px;font-style:normal;font-variant:normal;font-weight:normal;font-stretch:normal;text-align:start;line-height:125%;letter-spacing:0px;word-spacing:0px;writing-mode:lr-tb;text-anchor:start;fill:#ffffff;fill-opacity:1;stroke:none;font-family:Eras Bold ITC;-inkscape-font-specification:Eras Bold ITC"
         transform="scale(0.97407442,-1.0266156)">
        <path
           inkscape:connector-curvature="0"
           id="path4286"
           style="line-height:125%;fill:#ffffff;stroke:none;font-family:Eras Bold ITC;-inkscape-font-specification:Eras Bold ITC"
           d="m -22.813822,-849.34265 c 2.129703,0.0627 3.977564,0.094 5.543587,0.094 1.586823,2e-5 3.351165,-0.0313 5.293029,-0.094 -4.5e-5,1.21105 -0.0418,2.26548 -0.125279,3.16329 -0.08356,0.89785 -0.240162,1.88964 -0.469795,2.97537 -0.229722,1.08577 -0.522039,2.12976 -0.876952,3.13197 -0.355,1.00225 -0.699516,1.86354 -1.03355,2.58388 -0.334119,0.72036 -0.793474,1.58165 -1.378067,2.58387 1.336265,1.6704 2.609932,3.17374 3.821004,4.51004 1.210982,1.33631 2.2758507,2.5891 3.194609,3.75837 -2.964977,-0.0418 -5.345272,-0.0626 -7.140892,-0.0626 -2.401215,0 -4.677111,0.0209 -6.827694,0.0626 l -2.474257,-3.10065 c -1.02314,0.66815 -1.894871,1.20059 -2.615195,1.5973 -0.720381,0.39672 -1.612991,0.78299 -2.677834,1.15883 -1.064895,0.37584 -2.202843,0.66293 -3.413847,0.86129 -1.21105,0.19836 -2.442957,0.29754 -3.695725,0.29754 -3.215505,0 -6.143894,-0.53766 -8.785176,-1.61297 -2.641302,-1.0753 -4.635321,-2.71437 -5.982062,-4.91719 -1.346751,-2.20281 -2.020124,-4.55701 -2.020121,-7.06259 -3e-6,-2.83964 0.824749,-5.39219 2.474256,-7.65767 1.649498,-2.26543 4.551787,-4.42127 8.706877,-6.46752 -0.793445,-1.35716 -1.34154,-2.54208 -1.644284,-3.55478 -0.302769,-1.01264 -0.454148,-1.96789 -0.454136,-2.86576 -1.2e-5,-1.46155 0.365385,-2.88137 1.096189,-4.25947 0.73078,-1.37803 1.795649,-2.55774 3.19461,-3.53913 1.398929,-0.98131 2.839634,-1.6338 4.322118,-1.95748 1.482445,-0.3236 3.173707,-0.48541 5.073792,-0.48546 3.340739,5e-5 6.838102,0.39676 10.492099,1.19015 l 0.187919,8.39368 0.03132,1.31543 c -1.46162,-0.60548 -2.677867,-1.01786 -3.648745,-1.23713 -0.970942,-0.2192 -1.873992,-0.32882 -2.709154,-0.32886 -1.023139,4e-5 -1.926189,0.14098 -2.709154,0.42282 -0.783018,0.28191 -1.372872,0.71517 -1.769563,1.29977 -0.396741,0.58466 -0.595099,1.17974 -0.595074,1.78522 -2.5e-5,0.37587 0.05739,0.76736 0.172258,1.17449 0.114814,0.40718 0.354932,0.97616 0.720353,1.70692 0.365371,0.73082 0.908245,1.61299 1.628625,2.64652 0.720325,1.03357 1.325839,1.84788 1.816542,2.44293 0.490646,0.5951 1.226658,1.44595 2.208039,2.55256 l 2.474256,2.91273 c 0.146125,-0.48022 0.245304,-0.87693 0.297538,-1.19015 0.05216,-0.31318 0.109585,-0.85083 0.172258,-1.61296 0.06261,-0.76209 0.104365,-1.63382 0.125279,-2.6152 z m -8.268401,12.30865 c -0.793458,-1.00222 -1.806127,-2.21325 -3.038011,-3.63309 -1.23193,-1.41981 -2.516036,-2.96491 -3.852323,-4.63532 -0.689052,0.4385 -1.226706,0.79345 -1.612965,1.06487 -0.386293,0.27146 -0.736029,0.55856 -1.04921,0.8613 -0.313213,0.30277 -0.60031,0.67339 -0.861291,1.11185 -0.261013,0.43849 -0.454151,0.87174 -0.579415,1.29976 -0.125293,0.42805 -0.187933,0.87175 -0.187918,1.33109 -1.5e-5,0.9396 0.255763,1.79045 0.767333,2.55256 0.511539,0.76212 1.211011,1.33631 2.098419,1.72258 0.887374,0.38628 1.863503,0.57942 2.928392,0.57941 0.772532,10e-6 1.472004,-0.0939 2.09842,-0.28187 0.626371,-0.18791 1.164026,-0.42281 1.612965,-0.7047 0.448891,-0.28186 1.007425,-0.70468 1.675604,-1.26844 z" />
      </g>
      <g
         style="stroke:#484a8a;stroke-width:1.66838646;stroke-miterlimit:4;stroke-opacity:1;stroke-dasharray:none"
         transform="matrix(0.81557719,0,0,0.63431376,-4.5538668,304.85922)"
         id="g4237">
        <path
           d="m -70.976358,840.23711 0,-7.2115 -9.217922,0 0,-28.82377 -15.522977,0 0,28.82377 -9.181053,0 0,7.2115 z"
           style="font-size:230.17152405px;font-style:normal;font-variant:normal;font-weight:normal;font-stretch:normal;line-height:125%;letter-spacing:-8.029356px;word-spacing:0px;fill:#ffffff;stroke:#484a8a;stroke-width:1.66838646;stroke-miterlimit:4;stroke-opacity:1;stroke-dasharray:none;font-family:Impact;-inkscape-font-specification:Impact"
           id="path4208"
           inkscape:connector-curvature="0" />
        <path
           d="m -40.075323,823.36575 0,-7.23376 c -3.6e-5,-2.65611 -0.221266,-4.60366 -0.663689,-5.84266 -0.442497,-1.23902 -1.388869,-2.39642 -2.839121,-3.47221 -1.450317,-1.07579 -3.312335,-1.86965 -5.58606,-2.38158 -2.273779,-0.51193 -4.885521,-0.76789 -7.835234,-0.76789 -3.293886,0 -6.08384,0.21887 -8.369872,0.6566 -2.286052,0.43774 -4.062037,1.09805 -5.327956,1.98094 -1.265933,0.88289 -2.169289,1.95126 -2.710069,3.20512 -0.540788,1.25384 -0.81118,3.13462 -0.81118,5.64233 l 0,7.56763 c 0,2.7451 0.491623,4.88926 1.474869,6.43249 0.983239,1.54318 2.753078,2.78219 5.309522,3.71704 2.556427,0.9348 5.82571,1.40221 9.807867,1.40224 3.343013,-3e-5 6.212856,-0.30051 8.609539,-0.90144 2.396632,-0.60099 4.246358,-1.38372 5.54919,-2.34819 1.302765,-0.96453 2.19383,-1.9587 2.673195,-2.98254 0.479296,-1.02388 0.718963,-2.58191 0.718999,-4.67412 z m -14.896159,2.22577 c -2.3e-5,1.5135 -0.13522,2.46688 -0.405587,2.86012 -0.270416,0.3932 -0.848072,0.58981 -1.732971,0.58983 -0.88494,-2e-5 -1.474885,-0.19663 -1.769844,-0.58983 -0.294991,-0.39324 -0.442477,-1.34662 -0.442459,-2.86012 l 0,-13.33238 c -1.8e-5,-1.39483 0.147468,-2.30368 0.442459,-2.72658 0.294959,-0.4229 0.872615,-0.63435 1.73297,-0.63434 0.884902,-1e-5 1.468701,0.19289 1.751405,0.5787 0.282664,0.3858 0.424004,1.21675 0.424027,2.49287 z"
           style="font-size:230.17152405px;font-style:normal;font-variant:normal;font-weight:normal;font-stretch:normal;line-height:125%;letter-spacing:-8.029356px;word-spacing:0px;fill:#ffffff;stroke:#484a8a;stroke-width:1.66838646;stroke-miterlimit:4;stroke-opacity:1;stroke-dasharray:none;font-family:Impact;-inkscape-font-specification:Impact"
           id="path4218"
           inkscape:connector-curvature="0" />
        <path
           d="m -21.24573,837.67747 0,-4.65186 4.019012,0 0,-4.67413 -4.019012,0 0,-15.80299 c -1.8e-5,-1.94385 0.165902,-3.02706 0.497768,-3.24963 0.331823,-0.22258 1.714514,-0.33387 4.148065,-0.33387 l 0,-4.76315 -6.010085,0 c -3.39221,0 -5.813447,0.0853 -7.263721,0.25596 -1.450295,0.17064 -2.728513,0.56386 -3.834656,1.17966 -1.106157,0.6158 -1.794426,1.32062 -2.064814,2.11449 -0.270395,0.79385 -0.405595,2.65979 -0.405587,5.59782 l 0,15.00171 -3.207838,0 0,4.67413 3.207838,0 0,4.65186 z"
           style="font-size:230.17152405px;font-style:normal;font-variant:normal;font-weight:normal;font-stretch:normal;line-height:125%;letter-spacing:-8.029356px;word-spacing:0px;fill:#ffffff;stroke:#484a8a;stroke-width:1.66838646;stroke-miterlimit:4;stroke-opacity:1;stroke-dasharray:none;font-family:Impact;-inkscape-font-specification:Impact"
           id="path4220"
           inkscape:connector-curvature="0" />
        <path
           d="m -0.8216657,822.29738 -13.9743683,0 0,1.98094 c 0,2.2851 0.436315,4.04717 1.308944,5.28621 0.872628,1.23899 2.624033,2.33332 5.254217,3.28302 2.6301687,0.94963 6.046943,1.42446 10.2503281,1.42449 5.0391044,-3e-5 8.8368869,-0.53793 11.3933519,-1.61368 2.556404,-1.07582 4.092721,-2.39645 4.60896,-3.96188 0.516169,-1.56549 0.774268,-4.78915 0.774304,-9.67099 l 0,-14.82365 -14.4905688,0 0,2.62641 c -0.9095223,-1.05354 -2.0832711,-1.84368 -3.52124914,-2.37045 -1.43801116,-0.52677 -3.15254516,-0.79015 -5.14359956,-0.79015 -2.6056068,0 -4.9961184,0.44145 -7.1715425,1.32434 -2.175434,0.88288 -3.263145,2.8156 -3.263145,5.79814 l 0,2.42609 c 0,2.21092 0.577656,3.71703 1.732971,4.51832 1.155307,0.80127 4.0190072,1.73609 8.5911038,2.80448 4.8916233,1.15738 7.5095136,1.9364 7.8536684,2.33706 0.344114,0.40062 0.5161825,1.21673 0.5162003,2.44835 -1.78e-5,1.54318 -0.1905205,2.54849 -0.5715105,3.01592 -0.3810231,0.46739 -1.0139894,0.7011 -1.8988911,0.70112 -1.0078438,-2e-5 -1.63466192,-0.19663 -1.88045436,-0.58983 -0.24582812,-0.39324 -0.36873453,-1.41339 -0.36871924,-3.06044 z m 4.7195752,-4.05091 c -2.3843865,-1.05355 -3.76707216,-1.93644 -4.14806471,-2.64867 -0.38102059,-0.71226 -0.57152578,-1.73611 -0.57151049,-3.07157 -1.529e-5,-1.52837 0.1659076,-2.51513 0.49777123,-2.96028 0.3318254,-0.44516 0.9893714,-0.66774 1.97263287,-0.66773 0.9340613,-1e-5 1.5424452,0.17435 1.8251493,0.52305 0.2826634,0.34871 0.424004,1.26498 0.4240218,2.74884 z"
           style="font-size:230.17152405px;font-style:normal;font-variant:normal;font-weight:normal;font-stretch:normal;line-height:125%;letter-spacing:-8.029356px;word-spacing:0px;fill:#ffffff;stroke:#484a8a;stroke-width:1.66838646;stroke-miterlimit:4;stroke-opacity:1;stroke-dasharray:none;font-family:Impact;-inkscape-font-specification:Impact"
           id="path4222"
           inkscape:connector-curvature="0" />
        <path
           d="m 36.623642,840.23711 0,-36.03527 -15.33862,0 0,36.03527 z"
           style="font-size:230.17152405px;font-style:normal;font-variant:normal;font-weight:normal;font-stretch:normal;line-height:125%;letter-spacing:-8.029356px;word-spacing:0px;fill:#ffffff;stroke:#484a8a;stroke-width:1.66838646;stroke-miterlimit:4;stroke-opacity:1;stroke-dasharray:none;font-family:Impact;-inkscape-font-specification:Impact"
           id="path4224"
           inkscape:connector-curvature="0" />
      </g>
      <path
         d="m -103.15577,795.77717 0,-15.49644 -4.4291,0 0,15.49644 z"
         style="font-size:20.67442322px;font-style:normal;font-variant:normal;font-weight:normal;font-stretch:normal;line-height:125%;letter-spacing:0px;word-spacing:0px;fill:#e8502d;fill-opacity:1;stroke:none;font-family:Impact;-inkscape-font-specification:Impact"
         id="path4251"
         inkscape:connector-curvature="0" />
      <path
         d="m -97.779109,788.06245 -4.035161,0 0,0.85188 c 0,0.98267 0.12599,1.74042 0.37796,2.27325 0.25198,0.53281 0.7577,1.00342 1.517182,1.41182 0.759472,0.40838 1.74608,0.61257 2.959826,0.61258 1.455064,-1e-5 2.55169,-0.23132 3.28988,-0.69394 0.738172,-0.46264 1.181791,-1.03055 1.330857,-1.70375 0.149046,-0.67321 0.223573,-2.0595 0.223584,-4.15887 l 0,-6.37469 -4.184216,0 0,1.12945 c -0.262628,-0.45306 -0.601553,-0.79285 -1.016775,-1.01938 -0.415232,-0.22653 -0.91031,-0.33979 -1.485236,-0.33979 -0.752381,0 -1.442652,0.18983 -2.070812,0.56951 -0.62817,0.37967 -0.94225,1.2108 -0.94225,2.49341 l 0,1.0433 c 0,0.95077 0.1668,1.59845 0.5004,1.94304 0.3336,0.34457 1.16051,0.74658 2.480721,1.20603 1.412479,0.49771 2.168405,0.83272 2.267781,1.00502 0.09936,0.17228 0.14905,0.52323 0.149056,1.05287 -6e-6,0.66362 -0.05501,1.09594 -0.165026,1.29695 -0.110023,0.201 -0.292794,0.3015 -0.548314,0.30151 -0.291018,-1e-5 -0.472015,-0.0846 -0.542989,-0.25364 -0.07098,-0.16912 -0.106474,-0.60781 -0.106468,-1.31611 z m 1.362797,-1.74203 c -0.688502,-0.45306 -1.087758,-0.83274 -1.197771,-1.13903 -0.110023,-0.30629 -0.165032,-0.74659 -0.165026,-1.32088 -6e-6,-0.65726 0.0479,-1.0816 0.143732,-1.27302 0.09582,-0.19144 0.285685,-0.28715 0.569607,-0.28715 0.269715,0 0.445387,0.075 0.527019,0.22493 0.08162,0.14995 0.122433,0.54398 0.122439,1.18209 z"
         style="font-size:20.67442322px;font-style:normal;font-variant:normal;font-weight:normal;font-stretch:normal;line-height:125%;letter-spacing:0px;word-spacing:0px;fill:#e8502d;fill-opacity:1;stroke:none;font-family:Impact;-inkscape-font-specification:Impact"
         id="path4253"
         inkscape:connector-curvature="0" />
      <path
         d="m -82.19211,795.77717 0,-12.39525 2.725596,0 0,-3.10119 -7.207923,0 0,15.49644 z"
         style="font-size:20.67442322px;font-style:normal;font-variant:normal;font-weight:normal;font-stretch:normal;line-height:125%;letter-spacing:0px;word-spacing:0px;fill:#e8502d;fill-opacity:1;stroke:none;font-family:Impact;-inkscape-font-specification:Impact"
         id="path4255"
         inkscape:connector-curvature="0" />
      <path
         d="m -74.068556,795.77717 0,-2.01961 -4.429094,0 0,2.01961 z m 0,-2.79491 0,-12.70153 -4.429094,0 0,12.70153 z"
         style="font-size:20.67442322px;font-style:normal;font-variant:normal;font-weight:normal;font-stretch:normal;line-height:125%;letter-spacing:0px;word-spacing:0px;fill:#e8502d;fill-opacity:1;stroke:none;font-family:Impact;-inkscape-font-specification:Impact"
         id="path4257"
         inkscape:connector-curvature="0" />
      <path
         d="m -68.234076,795.77717 0,-3.66593 c 0.35489,0.3701 0.750598,0.64608 1.187124,0.82796 0.436515,0.18184 0.910299,0.27277 1.421356,0.27278 0.589118,-1e-5 1.100167,-0.083 1.533148,-0.24886 0.432962,-0.16592 0.763015,-0.39883 0.990158,-0.69873 0.227122,-0.29992 0.363756,-0.59345 0.409904,-0.88059 0.04612,-0.28716 0.0692,-0.89974 0.06921,-1.83775 l 0,-5.72383 c -10e-6,-0.93163 -0.06922,-1.62558 -0.207613,-2.08183 -0.13842,-0.45624 -0.463148,-0.85187 -0.974188,-1.18688 -0.511058,-0.335 -1.117928,-0.5025 -1.820613,-0.5025 -0.503958,0 -0.974194,0.0989 -1.410709,0.29672 -0.436527,0.19781 -0.835783,0.49453 -1.197771,0.89016 l -0.276818,-0.95716 -4.024513,0 0,15.49644 z m 1.309563,-6.40341 c -6e-6,0.65725 -0.04614,1.08637 -0.138409,1.28738 -0.09227,0.201 -0.273275,0.3015 -0.54299,0.30151 -0.262627,-1e-5 -0.432977,-0.0878 -0.511048,-0.26322 -0.07809,-0.17548 -0.117122,-0.61737 -0.117116,-1.32567 l 0,-5.47496 c -6e-6,-0.68278 0.04436,-1.11989 0.133086,-1.31131 0.08872,-0.19144 0.264392,-0.28715 0.527019,-0.28715 0.269715,0 0.445388,0.0989 0.527019,0.29672 0.08162,0.19781 0.122433,0.6732 0.122439,1.42617 z"
         style="font-size:20.67442322px;font-style:normal;font-variant:normal;font-weight:normal;font-stretch:normal;line-height:125%;letter-spacing:0px;word-spacing:0px;fill:#e8502d;fill-opacity:1;stroke:none;font-family:Impact;-inkscape-font-specification:Impact"
         id="path4259"
         inkscape:connector-curvature="0" />
      <path
         d="m -56.905819,792.98226 -0.17035,-1.66546 c 0.624611,1.19325 1.529592,1.82498 2.714949,1.89518 l 0,-4.46994 c -0.787874,-10e-6 -1.366352,-0.0957 -1.735438,-0.28715 -0.369096,-0.19145 -0.596229,-0.45785 -0.681399,-0.79924 -0.08518,-0.34139 -0.127767,-1.12785 -0.127762,-2.3594 l 0,-5.01552 -4.301331,0 0,12.70153 z"
         style="font-size:20.67442322px;font-style:normal;font-variant:normal;font-weight:normal;font-stretch:normal;line-height:125%;letter-spacing:0px;word-spacing:0px;fill:#e8502d;fill-opacity:1;stroke:none;font-family:Impact;-inkscape-font-specification:Impact"
         id="path4261"
         inkscape:connector-curvature="0" />
      <path
         d="m -43.671777,786.40656 -5.568307,0 0,-2.74705 c -5e-6,-0.5743 0.04613,-0.94441 0.138409,-1.11031 0.09227,-0.16592 0.269715,-0.24886 0.532344,-0.24886 0.326497,0 0.544757,0.11007 0.654781,0.33021 0.110012,0.22015 0.16502,0.64609 0.165027,1.27782 l 0,1.67503 4.077746,0 0,-0.93801 c -1e-5,-0.78488 -0.05502,-1.38789 -0.165026,-1.80905 -0.110027,-0.42115 -0.367327,-0.87101 -0.771897,-1.34959 -0.40459,-0.47858 -0.917413,-0.83752 -1.538471,-1.07681 -0.621075,-0.23929 -1.400069,-0.35893 -2.336986,-0.35893 -0.908537,0 -1.710599,0.11804 -2.40619,0.35415 -0.695597,0.2361 -1.236812,0.55993 -1.623646,0.97152 -0.386837,0.41158 -0.654782,0.86463 -0.803837,1.35917 -0.149057,0.49453 -0.223586,1.21399 -0.223585,2.15839 l 0,3.70422 c -10e-7,1.1103 0.1668,1.9861 0.500403,2.62741 0.333599,0.64129 0.880138,1.13263 1.639616,1.47403 0.759472,0.34137 1.632514,0.51207 2.619127,0.51208 1.206637,-1e-5 2.202118,-0.2058 2.986444,-0.61737 0.784309,-0.41159 1.334396,-0.95717 1.650263,-1.63675 0.315847,-0.67959 0.473775,-1.63516 0.473785,-2.8667 z m -4.311978,2.06747 0,0.92845 c -6e-6,0.65724 -0.03904,1.08158 -0.117115,1.27302 -0.07808,0.19142 -0.237785,0.28714 -0.479108,0.28715 -0.298118,-1e-5 -0.482663,-0.0814 -0.553638,-0.24408 -0.07098,-0.16272 -0.106473,-0.60142 -0.106468,-1.31609 l 0,-0.92845 z"
         style="font-size:20.67442322px;font-style:normal;font-variant:normal;font-weight:normal;font-stretch:normal;line-height:125%;letter-spacing:0px;word-spacing:0px;fill:#e8502d;fill-opacity:1;stroke:none;font-family:Impact;-inkscape-font-specification:Impact"
         id="path4263"
         inkscape:connector-curvature="0" />
      <path
         d="m -37.954413,792.98226 -0.17035,-1.66546 c 0.624611,1.19325 1.529592,1.82498 2.714949,1.89518 l 0,-4.46994 c -0.787875,-10e-6 -1.366352,-0.0957 -1.735438,-0.28715 -0.369096,-0.19145 -0.596229,-0.45785 -0.681399,-0.79924 -0.08517,-0.34139 -0.127767,-1.12785 -0.127762,-2.3594 l 0,-5.01552 -4.301331,0 0,12.70153 z"
         style="font-size:20.67442322px;font-style:normal;font-variant:normal;font-weight:normal;font-stretch:normal;line-height:125%;letter-spacing:0px;word-spacing:0px;fill:#e8502d;fill-opacity:1;stroke:none;font-family:Impact;-inkscape-font-specification:Impact"
         id="path4265"
         inkscape:connector-curvature="0" />
      <path
         d="m -30.033149,792.98226 0,-12.70153 -4.429093,0 0,12.70153 z m 1.479913,3.45535 -3.502816,-2.5939 -2.161313,0 1.873848,2.5939 z"
         style="font-size:20.67442322px;font-style:normal;font-variant:normal;font-weight:normal;font-stretch:normal;line-height:125%;letter-spacing:0px;word-spacing:0px;fill:#e8502d;fill-opacity:1;stroke:none;font-family:Impact;-inkscape-font-specification:Impact"
         id="path4267"
         inkscape:connector-curvature="0" />
      <path
         d="m -24.656488,788.06245 -4.03516,0 0,0.85188 c 0,0.98267 0.125987,1.74042 0.377963,2.27325 0.251976,0.53281 0.7577,1.00342 1.517178,1.41182 0.759473,0.40838 1.74608,0.61257 2.959827,0.61258 1.455063,-1e-5 2.551689,-0.23132 3.289879,-0.69394 0.738173,-0.46264 1.181791,-1.03055 1.330858,-1.70375 0.149045,-0.67321 0.223574,-2.0595 0.223583,-4.15887 l 0,-6.37469 -4.184215,0 0,1.12945 c -0.262628,-0.45306 -0.601553,-0.79285 -1.016774,-1.01938 -0.415233,-0.22653 -0.910311,-0.33979 -1.485238,-0.33979 -0.752381,0 -1.442651,0.18983 -2.070814,0.56951 -0.628165,0.37967 -0.942247,1.2108 -0.942247,2.49341 l 0,1.0433 c 0,0.95077 0.1668,1.59845 0.500403,1.94304 0.3336,0.34457 1.160505,0.74658 2.480718,1.20603 1.412478,0.49771 2.168404,0.83272 2.26778,1.00502 0.09936,0.17228 0.149051,0.52323 0.149056,1.05287 -5e-6,0.66362 -0.05501,1.09594 -0.165026,1.29695 -0.110023,0.201 -0.292794,0.3015 -0.548313,0.30151 -0.291019,-1e-5 -0.472016,-0.0846 -0.54299,-0.25364 -0.07098,-0.16912 -0.106472,-0.60781 -0.106468,-1.31611 z m 1.362797,-1.74203 c -0.688501,-0.45306 -1.087758,-0.83274 -1.197771,-1.13903 -0.110022,-0.30629 -0.16503,-0.74659 -0.165026,-1.32088 -4e-6,-0.65726 0.0479,-1.0816 0.143733,-1.27302 0.09582,-0.19144 0.285684,-0.28715 0.569606,-0.28715 0.269715,0 0.445388,0.075 0.52702,0.22493 0.08162,0.14995 0.122433,0.54398 0.122438,1.18209 z"
         style="font-size:20.67442322px;font-style:normal;font-variant:normal;font-weight:normal;font-stretch:normal;line-height:125%;letter-spacing:0px;word-spacing:0px;fill:#e8502d;fill-opacity:1;stroke:none;font-family:Impact;-inkscape-font-specification:Impact"
         id="path4269"
         inkscape:connector-curvature="0" />
      <path
         d="m -13.551815,795.77717 3.35376,0 c 2.1648552,-10e-6 3.6287969,-0.0893 4.3918295,-0.268 0.7630155,-0.17868 1.3432688,-0.47222 1.7407614,-0.88059 0.397472,-0.4084 0.6458984,-0.86305 0.7452802,-1.36396 0.09936,-0.50092 0.1490447,-1.48521 0.149056,-2.95283 l 0,-5.42712 c -1.13e-5,-1.39107 -0.072765,-2.32111 -0.2182606,-2.79012 -0.145518,-0.46902 -0.3992679,-0.83593 -0.7612504,-1.10074 -0.3620032,-0.26481 -0.8091708,-0.44986 -1.3415042,-0.55516 -0.5323514,-0.10528 -1.3344139,-0.15792 -2.40619,-0.15792 l -5.6534819,0 z m 4.4823274,-2.65133 0,-10.19378 c 0.6459035,0 1.0433858,0.11645 1.1924482,0.34937 0.1490493,0.23291 0.2235772,0.86623 0.223584,1.89996 l 0,6.02056 c -6.8e-6,0.7019 -0.024849,1.15177 -0.074528,1.34959 -0.049692,0.19781 -0.1632584,0.34297 -0.3406995,0.43551 -0.1774538,0.0925 -0.511055,0.13877 -1.0008047,0.13879 z"
         style="font-size:20.67442322px;font-style:normal;font-variant:normal;font-weight:normal;font-stretch:normal;line-height:125%;letter-spacing:0px;word-spacing:0px;fill:#e8502d;fill-opacity:1;stroke:none;font-family:Impact;-inkscape-font-specification:Impact"
         id="path4271"
         inkscape:connector-curvature="0" />
      <path
         d="m 2.8017628,795.77717 0,-2.01961 -4.4290931,0 0,2.01961 z m 0,-2.79491 0,-12.70153 -4.4290931,0 0,12.70153 z"
         style="font-size:20.67442322px;font-style:normal;font-variant:normal;font-weight:normal;font-stretch:normal;line-height:125%;letter-spacing:0px;word-spacing:0px;fill:#e8502d;fill-opacity:1;stroke:none;font-family:Impact;-inkscape-font-specification:Impact"
         id="path4273"
         inkscape:connector-curvature="0" />
      <path
         d="m 14.108724,792.98226 0,-9.78219 c -1.1e-5,-1.32089 -0.03373,-2.17435 -0.101143,-2.56041 -0.06744,-0.38606 -0.306995,-0.79444 -0.718663,-1.22517 -0.411688,-0.43072 -0.984843,-0.75935 -1.719468,-0.98587 -0.73464,-0.22653 -1.6591415,-0.33979 -2.7735063,-0.33979 -1.3698997,0 -2.470074,0.20897 -3.3005262,0.62693 -0.830456,0.41797 -1.2598789,1.23953 -1.2882699,2.4647 l 4.1735686,0 c -4.9e-6,-0.56154 0.2271279,-0.8423 0.6813989,-0.8423 0.3264979,0 0.5429838,0.0862 0.6494584,0.25843 0.1064624,0.17229 0.1596966,0.53282 0.1597028,1.08159 l 0,0.95716 c -0.369097,-0.29991 -0.757707,-0.52643 -1.1658309,-0.67958 -0.4081344,-0.15315 -0.8357828,-0.22972 -1.2829465,-0.22972 -0.7736748,0 -1.4107112,0.14038 -1.9111111,0.42115 -0.5004038,0.28076 -0.8428775,0.64927 -1.0274219,1.10552 -0.1845462,0.45624 -0.2768189,1.10552 -0.2768183,1.94782 l 0,4.61353 c -6e-7,1.20601 0.2413279,2.07383 0.7239864,2.60348 0.4826558,0.52961 1.2172883,0.79443 2.2038997,0.79444 0.5394367,-1e-5 1.0309662,-0.0989 1.47459,-0.29672 0.4436136,-0.19782 0.8393214,-0.49455 1.1871246,-0.89016 l 0.3087587,0.95716 z m -4.3119778,-3.3692 c -6.2e-6,0.58066 -0.03727,0.95077 -0.111792,1.1103 -0.074534,0.15952 -0.2395602,0.23928 -0.4950789,0.23929 -0.248432,-1e-5 -0.424105,-0.0909 -0.5270195,-0.27279 -0.1029245,-0.18187 -0.1543844,-0.54081 -0.1543794,-1.0768 l 0,-4.26895 c -5e-6,-0.56791 0.039033,-0.93643 0.1171154,-1.10552 0.078072,-0.16911 0.2413235,-0.25365 0.4897555,-0.25364 0.2839104,-10e-6 0.4684557,0.10208 0.5536366,0.30628 0.085169,0.2042 0.1277561,0.66682 0.1277623,1.38789 z"
         style="font-size:20.67442322px;font-style:normal;font-variant:normal;font-weight:normal;font-stretch:normal;line-height:125%;letter-spacing:0px;word-spacing:0px;fill:#e8502d;fill-opacity:1;stroke:none;font-family:Impact;-inkscape-font-specification:Impact"
         id="path4275"
         inkscape:connector-curvature="0" />
      <path
         d="m 20.092262,795.77717 0,-2.01961 -4.429093,0 0,2.01961 z m 0,-2.79491 0,-12.70153 -4.429093,0 0,12.70153 z"
         style="font-size:20.67442322px;font-style:normal;font-variant:normal;font-weight:normal;font-stretch:normal;line-height:125%;letter-spacing:0px;word-spacing:0px;fill:#e8502d;fill-opacity:1;stroke:none;font-family:Impact;-inkscape-font-specification:Impact"
         id="path4277"
         inkscape:connector-curvature="0" />
      <path
         d="m 26.160969,794.67644 0,-2.00047 1.160507,0 0,-2.01004 -1.160507,0 0,-6.79584 c -5e-6,-0.83593 0.0479,-1.30175 0.143732,-1.39746 0.09582,-0.0957 0.495074,-0.14358 1.197772,-0.14358 l 0,-2.04832 -1.735438,0 c -0.979515,0 -1.678657,0.0367 -2.097431,0.11007 -0.418778,0.0734 -0.78787,0.24248 -1.107273,0.50729 -0.319407,0.26482 -0.518149,0.56791 -0.596224,0.90931 -0.07808,0.34138 -0.117116,1.1438 -0.117115,2.40726 l 0,6.45127 -0.926278,0 0,2.01004 0.926278,0 0,2.00047 z"
         style="font-size:20.67442322px;font-style:normal;font-variant:normal;font-weight:normal;font-stretch:normal;line-height:125%;letter-spacing:0px;word-spacing:0px;fill:#e8502d;fill-opacity:1;stroke:none;font-family:Impact;-inkscape-font-specification:Impact"
         id="path4279"
         inkscape:connector-curvature="0" />
      <path
         d="m 32.112556,788.06245 -4.035158,0 0,0.85188 c -10e-7,0.98267 0.125987,1.74042 0.377963,2.27325 0.251974,0.53281 0.7577,1.00342 1.517177,1.41182 0.759473,0.40838 1.746081,0.61257 2.959827,0.61258 1.455064,-1e-5 2.551689,-0.23132 3.28988,-0.69394 0.738172,-0.46264 1.181791,-1.03055 1.330856,-1.70375 0.149047,-0.67321 0.223574,-2.0595 0.223585,-4.15887 l 0,-6.37469 -4.184216,0 0,1.12945 c -0.262628,-0.45306 -0.601553,-0.79285 -1.016775,-1.01938 -0.415232,-0.22653 -0.910311,-0.33979 -1.485236,-0.33979 -0.752381,0 -1.442652,0.18983 -2.070815,0.56951 -0.628166,0.37967 -0.942247,1.2108 -0.942246,2.49341 l 0,1.0433 c -10e-7,0.95077 0.166799,1.59845 0.500402,1.94304 0.3336,0.34457 1.160505,0.74658 2.480718,1.20603 1.412478,0.49771 2.168404,0.83272 2.267781,1.00502 0.09936,0.17228 0.149049,0.52323 0.149056,1.05287 -7e-6,0.66362 -0.05501,1.09594 -0.165027,1.29695 -0.110023,0.201 -0.292793,0.3015 -0.548313,0.30151 -0.291019,-1e-5 -0.472015,-0.0846 -0.542989,-0.25364 -0.07098,-0.16912 -0.106474,-0.60781 -0.10647,-1.31611 z m 1.362799,-1.74203 c -0.688503,-0.45306 -1.087759,-0.83274 -1.197772,-1.13903 -0.110022,-0.30629 -0.165031,-0.74659 -0.165027,-1.32088 -4e-6,-0.65726 0.0479,-1.0816 0.143733,-1.27302 0.09582,-0.19144 0.285686,-0.28715 0.569607,-0.28715 0.269715,0 0.445388,0.075 0.52702,0.22493 0.08162,0.14995 0.122432,0.54398 0.122439,1.18209 z"
         style="font-size:20.67442322px;font-style:normal;font-variant:normal;font-weight:normal;font-stretch:normal;line-height:125%;letter-spacing:0px;word-spacing:0px;fill:#e8502d;fill-opacity:1;stroke:none;font-family:Impact;-inkscape-font-specification:Impact"
         id="path4281"
         inkscape:connector-curvature="0" />
      <path
         d="m 43.685689,795.77717 0,-15.49644 -4.429093,0 0,15.49644 z"
         style="font-size:20.67442322px;font-style:normal;font-variant:normal;font-weight:normal;font-stretch:normal;line-height:125%;letter-spacing:0px;word-spacing:0px;fill:#e8502d;fill-opacity:1;stroke:none;font-family:Impact;-inkscape-font-specification:Impact"
         id="path4283"
         inkscape:connector-curvature="0" />
      <g
         transform="translate(-1.2395662,0)"
         id="g4343">
        <path
           sodipodi:type="arc"
           style="fill:none;stroke:#ffffff;stroke-width:1.48726523;stroke-miterlimit:4;stroke-opacity:1;stroke-dasharray:none"
           id="path4321"
           sodipodi:cx="-167.06662"
           sodipodi:cy="144.40662"
           sodipodi:rx="3.3168921"
           sodipodi:ry="3.3168921"
           d="m -163.74973,144.40662 c 0,1.83187 -1.48502,3.31689 -3.31689,3.31689 -1.83187,0 -3.31689,-1.48502 -3.31689,-3.31689 0,-1.83187 1.48502,-3.3169 3.31689,-3.3169 1.83187,0 3.31689,1.48503 3.31689,3.3169 z"
           transform="matrix(0.64548003,0,0,-0.64548003,90.699583,1084.9296)" />
        <path
           transform="matrix(0.64548003,0,0,-0.64548003,90.699583,1077.7278)"
           d="m -163.74973,144.40662 c 0,1.83187 -1.48502,3.31689 -3.31689,3.31689 -1.83187,0 -3.31689,-1.48502 -3.31689,-3.31689 0,-1.83187 1.48502,-3.3169 3.31689,-3.3169 1.83187,0 3.31689,1.48503 3.31689,3.3169 z"
           sodipodi:ry="3.3168921"
           sodipodi:rx="3.3168921"
           sodipodi:cy="144.40662"
           sodipodi:cx="-167.06662"
           id="path4323"
           style="fill:none;stroke:#ffffff;stroke-width:1.48726523;stroke-miterlimit:4;stroke-opacity:1;stroke-dasharray:none"
           sodipodi:type="arc" />
        <path
           sodipodi:type="arc"
           style="fill:none;stroke:#ffffff;stroke-width:1.48726523;stroke-miterlimit:4;stroke-opacity:1;stroke-dasharray:none"
           id="path4325"
           sodipodi:cx="-167.06662"
           sodipodi:cy="144.40662"
           sodipodi:rx="3.3168921"
           sodipodi:ry="3.3168921"
           d="m -163.74973,144.40662 c 0,1.83187 -1.48502,3.31689 -3.31689,3.31689 -1.83187,0 -3.31689,-1.48502 -3.31689,-3.31689 0,-1.83187 1.48502,-3.3169 3.31689,-3.3169 1.83187,0 3.31689,1.48503 3.31689,3.3169 z"
           transform="matrix(0.64548003,0,0,-0.64548003,90.699583,1072.5639)" />
        <path
           transform="matrix(0.64548003,0,0,-0.64548003,90.699583,1067.4001)"
           d="m -163.74973,144.40662 c 0,1.83187 -1.48502,3.31689 -3.31689,3.31689 -1.83187,0 -3.31689,-1.48502 -3.31689,-3.31689 0,-1.83187 1.48502,-3.3169 3.31689,-3.3169 1.83187,0 3.31689,1.48503 3.31689,3.3169 z"
           sodipodi:ry="3.3168921"
           sodipodi:rx="3.3168921"
           sodipodi:cy="144.40662"
           sodipodi:cx="-167.06662"
           id="path4327"
           style="fill:none;stroke:#ffffff;stroke-width:1.48726523;stroke-miterlimit:4;stroke-opacity:1;stroke-dasharray:none"
           sodipodi:type="arc" />
        <path
           sodipodi:type="arc"
           style="fill:none;stroke:#ffffff;stroke-width:1.48726523;stroke-miterlimit:4;stroke-opacity:1;stroke-dasharray:none"
           id="path4331"
           sodipodi:cx="-167.06662"
           sodipodi:cy="144.40662"
           sodipodi:rx="3.3168921"
           sodipodi:ry="3.3168921"
           d="m -163.74973,144.40662 c 0,1.83187 -1.48502,3.31689 -3.31689,3.31689 -1.83187,0 -3.31689,-1.48502 -3.31689,-3.31689 0,-1.83187 1.48502,-3.3169 3.31689,-3.3169 1.83187,0 3.31689,1.48503 3.31689,3.3169 z"
           transform="matrix(0.4511265,-0.46165935,-0.46165935,-0.4511265,121.1255,976.10819)" />
        <path
           transform="matrix(0.4511265,-0.46165935,-0.46165935,-0.4511265,117.43218,972.49914)"
           d="m -163.74973,144.40662 c 0,1.83187 -1.48502,3.31689 -3.31689,3.31689 -1.83187,0 -3.31689,-1.48502 -3.31689,-3.31689 0,-1.83187 1.48502,-3.3169 3.31689,-3.3169 1.83187,0 3.31689,1.48503 3.31689,3.3169 z"
           sodipodi:ry="3.3168921"
           sodipodi:rx="3.3168921"
           sodipodi:cy="144.40662"
           sodipodi:cx="-167.06662"
           id="path4333"
           style="fill:none;stroke:#ffffff;stroke-width:1.48726523;stroke-miterlimit:4;stroke-opacity:1;stroke-dasharray:none"
           sodipodi:type="arc" />
        <path
           sodipodi:type="arc"
           style="fill:none;stroke:#ffffff;stroke-width:1.48726523;stroke-miterlimit:4;stroke-opacity:1;stroke-dasharray:none"
           id="path4335"
           sodipodi:cx="-167.06662"
           sodipodi:cy="144.40662"
           sodipodi:rx="3.3168921"
           sodipodi:ry="3.3168921"
           d="m -163.74973,144.40662 c 0,1.83187 -1.48502,3.31689 -3.31689,3.31689 -1.83187,0 -3.31689,-1.48502 -3.31689,-3.31689 0,-1.83187 1.48502,-3.3169 3.31689,-3.3169 1.83187,0 3.31689,1.48503 3.31689,3.3169 z"
           transform="matrix(0.44508643,0.46748534,-0.46748534,0.44508643,132.16521,998.36332)" />
        <path
           transform="matrix(0.44508643,0.46748534,-0.46748534,0.44508643,128.42535,1001.9239)"
           d="m -163.74973,144.40662 c 0,1.83187 -1.48502,3.31689 -3.31689,3.31689 -1.83187,0 -3.31689,-1.48502 -3.31689,-3.31689 0,-1.83187 1.48502,-3.3169 3.31689,-3.3169 1.83187,0 3.31689,1.48503 3.31689,3.3169 z"
           sodipodi:ry="3.3168921"
           sodipodi:rx="3.3168921"
           sodipodi:cy="144.40662"
           sodipodi:cx="-167.06662"
           id="path4337"
           style="fill:none;stroke:#ffffff;stroke-width:1.48726523;stroke-miterlimit:4;stroke-opacity:1;stroke-dasharray:none"
           sodipodi:type="arc" />
      </g>
    </g>
  </g>
</svg>
